<?xml version="1.0" encoding="utf-8"?>
<!-- Generator: Adobe Illustrator 24.1.2, SVG Export Plug-In . SVG Version: 6.00 Build 0)  -->
<svg version="1.1" id="Layer_1" xmlns="http://www.w3.org/2000/svg" xmlns:xlink="http://www.w3.org/1999/xlink" x="0px" y="0px"
	 viewBox="0 0 50 50" style="enable-background:new 0 0 50 50;" xml:space="preserve">
<style type="text/css">
	.st0{fill:#AFCBE2;}
</style>
<g>
	<g transform="scale(5.12,5.12)">
		<path class="st0" d="M8,0.8H1.8c-0.5,0-1,0.4-1,1V8c0,0.5,0.4,1,1,1H8c0.5,0,1-0.4,1-1V1.8C9,1.2,8.5,0.8,8,0.8z M3.3,3.9v3.7H2.1
			V3.9H3.3z M2.1,2.8c0-0.3,0.2-0.5,0.6-0.5s0.6,0.2,0.6,0.5c0,0.3-0.2,0.5-0.6,0.5C2.4,3.3,2.1,3.1,2.1,2.8z M7.6,7.6H6.4
			c0,0,0-1.8,0-2c0-0.4-0.2-0.8-0.7-0.8h0c-0.5,0-0.7,0.4-0.7,0.8c0,0.2,0,2,0,2H3.9V3.9h1.2v0.5c0,0,0.4-0.5,1.1-0.5
			c0.8,0,1.4,0.5,1.4,1.6V7.6z"/>
	</g>
</g>
</svg>
