<?xml version="1.0" encoding="utf-8"?>
<!-- Generator: Adobe Illustrator 24.1.2, SVG Export Plug-In . SVG Version: 6.00 Build 0)  -->
<svg version="1.1" id="Layer_1" xmlns="http://www.w3.org/2000/svg" xmlns:xlink="http://www.w3.org/1999/xlink" x="0px" y="0px"
	 viewBox="0 0 512 512" style="enable-background:new 0 0 512 512;" xml:space="preserve">
<style type="text/css">
	.st0{fill:#AFCBE2;}
	.st1{fill:#FFFFFF;}
</style>
<g id="Layer_1_1_">
	<path class="st0" d="M182.3,275.6"/>
</g>
<g id="Layer_2_1_">
	<polygon class="st0" points="54.6,9.2 54.4,417.1 144.2,507.6 457.3,508.1 457.3,3.9 54.4,3.9 	"/>
</g>
<g id="Layer_3">
	<path class="st1" d="M159.2,40.6c-19.3,0.1-30.6,15.8-31.8,17.7c-10.7,15.5-6.3,32.6-5.3,36.2c1.3,4.8,5.5,20.9,21,28
		c13.6,6.2,29.3,2.4,39.5-6c14.6-12,14.3-30.2,14.2-34.7c-0.1-3.8-0.4-22.6-15.5-33.8C178.9,46.2,170.8,40.5,159.2,40.6z"/>
	<polygon class="st1" points="133.7,147.9 155.2,168.2 161.2,168.2 182,148.9 186.8,149.1 198.8,155.6 211.5,166.4 219.5,177.7 
		225.2,190.1 228.8,200.1 228.8,211.6 226.2,214.6 91.2,214.6 87,210.9 87,203.2 91,189.6 99.3,174.2 107.8,163.4 119.5,154.4 	"/>
	<polygon class="st1" points="329.7,105.4 320.8,117.4 306.8,110.1 298.7,108.7 289.7,110.6 282,116.1 277,122.2 274.2,129.9 
		274.2,140.9 275.8,147.1 279.5,153.4 285.5,158.9 293.2,163.1 295.8,163.9 306,163.9 312.5,160.6 319,155.4 321.5,155.1 
		329.7,163.9 329.7,166.7 322.8,172.2 311.8,178.2 307.5,179.2 292.7,180.1 284.3,178.7 275.2,173.1 268.7,167.2 261.5,157.6 
		259.2,150.4 257.3,146.6 257.3,129.1 261.3,117.4 268.2,105.4 280,96.7 289.8,93.2 309,93.2 319.2,96.6 	"/>
	<polygon class="st1" points="340.3,94.1 354.3,94.1 376.8,152.6 380.3,152.6 402.3,94.1 418,94.1 418.7,100.4 388.5,178.7 
		368.7,178.7 338.2,98.7 338.2,94.1 	"/>
	<polygon class="st1" points="415.3,261.6 98,261.6 89,265.6 85.3,275.6 91,285.9 96,289.2 415.3,289.2 421,285.2 426.3,277.6 
		425,268.9 	"/>
	<polygon class="st1" points="415.3,336.2 98,336.2 89,340.2 85.3,350.2 91,360.6 96,363.9 415.3,363.9 421,359.9 426.3,352.2 
		425,343.6 	"/>
	<polygon class="st1" points="202,423.9 416,423.9 422.3,427.9 426.3,436.9 424,446.6 416.7,452.1 202,452.1 196.7,447.6 
		192.3,441.2 192.3,434.2 196.7,427.6 	"/>
	<polygon class="st1" points="87,395.9 168.7,395.9 170.7,398.6 170.7,481.6 167.3,481.6 85.3,400.9 	"/>
</g>
</svg>
