<?xml version="1.0" encoding="utf-8"?>
<!-- Generator: Adobe Illustrator 24.1.2, SVG Export Plug-In . SVG Version: 6.00 Build 0)  -->
<svg version="1.1" id="Layer_1" xmlns="http://www.w3.org/2000/svg" xmlns:xlink="http://www.w3.org/1999/xlink" x="0px" y="0px"
	 viewBox="0 0 244 249.7" style="enable-background:new 0 0 244 249.7;" xml:space="preserve">
<style type="text/css">
	.st0{fill:#FFF200;stroke:#F7941D;stroke-miterlimit:10;}
</style>
<path class="st0" d="M165.5,11.1l-50.7,63.5c-0.9,1.1-2.4,1.5-3.7,1.1L46,52.9c-2.8-1-5.4,1.9-4.1,4.6L65,107
	c0.5,1.2,0.4,2.5-0.4,3.5l-54.1,65.9c-2,2.5,0.2,6.1,3.4,5.4l98.1-22.9c1.4-0.3,2.8,0.3,3.6,1.5l50.9,80.2c1.8,2.8,6.1,1.6,6.2-1.7
	l3-90.1c0-1.5,1.1-2.8,2.5-3.1l55.7-14c3.2-0.8,3.4-5.2,0.4-6.4l-63.5-24.8c-1.3-0.5-2.2-1.8-2.1-3.2l2.8-83.9
	C171.5,10.1,167.5,8.6,165.5,11.1z"/>
</svg>
